<?xml version="1.0" encoding="utf-8"?>
<!-- Generator: Adobe Illustrator 23.0.3, SVG Export Plug-In . SVG Version: 6.00 Build 0)  -->
<svg version="1.1" xmlns="http://www.w3.org/2000/svg" xmlns:xlink="http://www.w3.org/1999/xlink" x="0px" y="0px"
	 viewBox="0 0 90 90" style="enable-background:new 0 0 90 90;" xml:space="preserve">
<style type="text/css">
	.st0{fill:#FFFFFF;}
	.st1{fill-rule:evenodd;clip-rule:evenodd;fill:#003399;}
	.st2{clip-path:url(#SVGID_2_);}
	.st3{fill:url(#SVGID_3_);}
	.st4{clip-path:url(#SVGID_5_);}
	.st5{fill:url(#SVGID_6_);}
	.st6{clip-path:url(#SVGID_8_);}
	.st7{fill:url(#SVGID_9_);}
	.st8{clip-path:url(#SVGID_11_);}
	.st9{fill:url(#SVGID_12_);}
	.st10{clip-path:url(#SVGID_14_);}
	.st11{fill:url(#SVGID_15_);}
	.st12{clip-path:url(#SVGID_17_);}
	.st13{fill:url(#SVGID_18_);}
	.st14{clip-path:url(#SVGID_20_);}
	.st15{fill:url(#SVGID_21_);}
	.st16{clip-path:url(#SVGID_23_);}
	.st17{fill:url(#SVGID_24_);}
</style>
<g id="Слой_3">
	<path class="st0" d="M45.1,4.6c9.7-6.1,25.2-7.3,36.6,4c15.9,16.8,3.7,35.1,3.7,35.1l0,0c0,0,12.8,20.5-3.8,37.7
		c-16.6,15-35.3,4.6-35.3,4.6S24.9,97,8.8,81.5c-16.6-15.7-4-35.4-4-35.4S-7.9,25.5,8.8,8.9C17.4,0.3,31.3-2.5,45.1,4.6"/>
</g>
<g id="Слой_1">
	<g>
		<path class="st1" d="M8.8,42.5c-5.7-9.9-4.2-22.1,3.9-30.2c5-5,11.8-7.5,18.9-6.9c9.1,0.8,17.3,8.7,23.4,14.8
			c0.2,0.2,0.2,0.4,0,0.6s-0.4,0.2-0.6,0c-6-6-14-13.8-22.9-14.6C24.7,5.6,18.2,8,13.3,12.8C5.5,20.6,4,32.4,9.5,42
			c0.1,0.2,0.1,0.5-0.2,0.6C9.2,42.8,8.9,42.7,8.8,42.5"/>
		<path class="st1" d="M81.2,47.2c5.7,9.9,4.2,22.1-3.9,30.2c-5,5-11.8,7.5-18.9,6.9c-9.1-0.8-17.3-8.7-23.4-14.8
			c-0.2-0.2-0.2-0.4,0-0.6s0.4-0.2,0.6,0c6,6,14,13.8,22.9,14.6c6.8,0.6,13.3-1.8,18.2-6.6c7.8-7.8,9.3-19.6,3.8-29.2
			c-0.1-0.2-0.1-0.5,0.2-0.6C80.8,47,81,47,81.2,47.2"/>
		<path class="st1" d="M48.1,8.1c10.1-5.3,22.3-3.1,30,5.3c4.8,5.2,7,12.1,6,19.2c-1.3,9.1-9.5,16.9-15.9,22.7
			c-0.2,0.2-0.5,0.1-0.6,0c-0.2-0.2-0.1-0.5,0-0.6C73.9,49,82,41.3,83.2,32.5c0.9-6.8-1.1-13.4-5.8-18.5C70,5.9,58.2,3.8,48.4,8.9
			c-0.2,0.1-0.5,0-0.6-0.2C47.8,8.4,47.9,8.2,48.1,8.1"/>
		<path class="st1" d="M41.5,81.7c-10.1,5.3-22.3,3.1-30-5.3c-4.8-5.2-7-12.1-6-19.2c1.3-9,9.5-16.8,15.9-22.7
			c0.2-0.2,0.5-0.1,0.6,0c0.2,0.2,0.1,0.5,0,0.6C15.7,40.8,7.6,48.5,6.4,57.3c-0.9,6.8,1.1,13.4,5.8,18.5c7.4,8.1,19.2,10.2,29,5.1
			c0.2-0.1,0.5,0,0.6,0.2C41.8,81.3,41.7,81.6,41.5,81.7"/>
		<g>
			<g>
				<g>
					<defs>
						<path id="SVGID_1_" d="M48.7,19.8c-4.9-5.1-11.2-9.5-18.4-10.1c-5.7-0.5-11,1.5-15,5.5c-6.6,6.6-7.7,16.5-3.2,24.4
							c1.3-1.3,2.6-2.6,3.9-3.8c-2.7-5.6-1.9-12.2,2.6-16.8c6.1-6.2,14.7-5.1,21.1-0.1C42.8,21.2,45.7,21.4,48.7,19.8"/>
					</defs>
					<clipPath id="SVGID_2_">
						<use xlink:href="#SVGID_1_"  style="overflow:visible;"/>
					</clipPath>
					<g class="st2">
						
							<linearGradient id="SVGID_3_" gradientUnits="userSpaceOnUse" x1="-334.4512" y1="139.7361" x2="-333.7912" y2="139.7361" gradientTransform="matrix(0 -29.9633 39.3262 0 -5467.1948 -9986.8291)">
							<stop  offset="0" style="stop-color:#990000"/>
							<stop  offset="1" style="stop-color:#CC3300"/>
						</linearGradient>
						<rect x="7.5" y="9.1" class="st3" width="41.1" height="30.4"/>
					</g>
				</g>
			</g>
		</g>
		<g>
			<g>
				<g>
					<defs>
						<path id="SVGID_4_" d="M41.1,70.1c4.9,5.1,11.2,9.5,18.4,10.1c5.7,0.5,11-1.5,15-5.5c6.6-6.6,7.7-16.5,3.2-24.4
							c-1.3,1.3-2.6,2.6-3.9,3.8c2.7,5.6,1.9,12.2-2.6,16.8C65.1,77.1,56.5,76,50.1,71C47,68.7,44.1,68.5,41.1,70.1"/>
					</defs>
					<clipPath id="SVGID_5_">
						<use xlink:href="#SVGID_4_"  style="overflow:visible;"/>
					</clipPath>
					<g class="st4">
						
							<linearGradient id="SVGID_6_" gradientUnits="userSpaceOnUse" x1="-316.6993" y1="111.7181" x2="-315.9193" y2="111.7181" gradientTransform="matrix(-39.3267 0 0 -29.9633 -12378.6006 3412.9656)">
							<stop  offset="0" style="stop-color:#006633"/>
							<stop  offset="1" style="stop-color:#7BD41A"/>
						</linearGradient>
						<rect x="41.1" y="50.3" class="st5" width="41.1" height="30.4"/>
					</g>
				</g>
			</g>
		</g>
		<g>
			<g>
				<g>
					<defs>
						<path id="SVGID_7_" d="M70.3,48.7c5.1-4.9,9.5-11.2,10.1-18.4c0.5-5.7-1.5-11-5.5-15c-6.6-6.6-16.5-7.7-24.4-3.2
							c1.3,1.3,2.6,2.6,3.8,3.9c5.6-2.7,12.2-1.9,16.8,2.6c6.2,6.1,5.1,14.7,0.1,21.1C68.9,42.9,68.7,45.7,70.3,48.7"/>
					</defs>
					<clipPath id="SVGID_8_">
						<use xlink:href="#SVGID_7_"  style="overflow:visible;"/>
					</clipPath>
					<g class="st6">
						
							<linearGradient id="SVGID_9_" gradientUnits="userSpaceOnUse" x1="-294.2232" y1="127.9319" x2="-293.2432" y2="127.9319" gradientTransform="matrix(0 39.3267 -29.9633 0 3899.0051 11580.5645)">
							<stop  offset="0" style="stop-color:#003399"/>
							<stop  offset="1" style="stop-color:#00B0D9"/>
						</linearGradient>
						<rect x="50.5" y="7.5" class="st7" width="30.4" height="41.1"/>
					</g>
				</g>
			</g>
		</g>
		<g>
			<g>
				<g>
					<defs>
						<path id="SVGID_10_" d="M19.5,41.2C14.4,46.1,10,52.4,9.4,59.6c-0.5,5.7,1.5,11,5.5,15c6.6,6.6,16.5,7.7,24.4,3.2
							c-1.3-1.3-2.6-2.6-3.8-3.9c-5.6,2.7-12.2,1.9-16.8-2.6c-6.2-6.1-5.1-14.7-0.1-21.1C21,47,21.1,44.2,19.5,41.2"/>
					</defs>
					<clipPath id="SVGID_11_">
						<use xlink:href="#SVGID_10_"  style="overflow:visible;"/>
					</clipPath>
					<g class="st8">
						
							<linearGradient id="SVGID_12_" gradientUnits="userSpaceOnUse" x1="-316.8095" y1="117.1597" x2="-315.8095" y2="117.1597" gradientTransform="matrix(-39.3262 0 0 -39.3273 -12414.9375 4669.3462)">
							<stop  offset="0" style="stop-color:#E33D00"/>
							<stop  offset="1" style="stop-color:#FF6600"/>
						</linearGradient>
						<rect x="8.9" y="41.2" class="st9" width="30.4" height="41.1"/>
					</g>
				</g>
			</g>
		</g>
		<g>
			
				<rect x="29.6" y="23.3" transform="matrix(0.7014 -0.7128 0.7128 0.7014 -12.1888 30.8555)" class="st1" width="2.2" height="13.3"/>
		</g>
		<g>
			
				<rect x="54.8" y="28.9" transform="matrix(0.7128 -0.7014 0.7014 0.7128 -3.2465 51.2556)" class="st1" width="12.4" height="1.3"/>
		</g>
		<g>
			
				<rect x="59.6" y="53.2" transform="matrix(0.7014 -0.7128 0.7128 0.7014 -24.555 61.1249)" class="st1" width="2.2" height="13.3"/>
		</g>
		<g>
			
				<rect x="23.2" y="60.5" transform="matrix(0.7128 -0.7014 0.7014 0.7128 -34.4598 38.196)" class="st1" width="12.4" height="1.3"/>
		</g>
		<g>
			<path class="st1" d="M41.5,40.4c0,0.1-0.7,0.7-0.8,0.8c-0.2-0.1-0.9-0.4-1-0.4s-0.8,1.3-0.8,1.4l0.8,0.7c0,0.2-0.2,0.6-0.3,1.1
				l-1.1,0.2v1.7c0.2,0,0.4,0.1,0.6,0.1l0.4,0.1c0.1,0,0.1,0.3,0.2,0.6c0,0.2,0.1,0.3,0.2,0.5c-0.2,0.2-0.7,0.5-0.8,0.7l0.8,1.4
				c0.3,0,0.7-0.3,1-0.3l0.1,0.1c0.2,0.2,0.5,0.6,0.7,0.7l-0.4,1c0.1,0.1,1.3,0.8,1.4,0.8l0.7-0.8c0.1,0,0.4,0.1,0.5,0.1
				c0.2,0.1,0.4,0.1,0.6,0.1l0.2,1c0.1,0.1,1.3,0,1.6,0c0-0.2,0.1-1,0.3-1.1h0.2c0.4-0.1,0.5-0.2,0.8-0.2c0.2,0.3,0.5,0.6,0.7,0.8
				l1.4-0.8c0-0.3-0.3-0.8-0.3-1.1c0.3-0.2,0.5-0.5,0.8-0.8l1,0.4c0.1-0.1,0.3-0.5,0.4-0.7c0.1-0.2,0.3-0.5,0.4-0.7
				c-0.1-0.1-0.7-0.6-0.8-0.7c0-0.1,0.3-1.1,0.3-1.1c0.1-0.1,0.8-0.2,1.1-0.2v-1.7c-0.1,0-1-0.2-1-0.2l-0.3-1.1
				c0.3-0.2,0.6-0.4,0.8-0.7c-0.1-0.2-0.6-1.1-0.8-1.4l-1,0.4c-0.3-0.2-0.5-0.5-0.8-0.8c0.1-0.3,0.4-0.8,0.4-1.1
				c-0.2,0-1.1-0.7-1.4-0.8l-0.7,0.9c-0.2,0-0.3-0.1-0.5-0.2C46.9,39,46.8,39,46.6,39l-0.1-0.9c0-0.1,0-0.2-0.1-0.2h-1.5
				c-0.1,0-0.1,0.1-0.1,0.3l-0.2,0.9c-0.3-0.1-0.8,0.2-1,0.2c-0.1-0.2-0.2-0.3-0.3-0.5c-0.1-0.1-0.2-0.4-0.4-0.4
				c-0.1,0-0.3,0.1-0.4,0.2L41.8,39c-0.2,0.1-0.2,0.1-0.3,0.2V40.4z M37,44.9c0-4.6,3.9-8.3,8.5-8.2s8.2,3.9,8.2,8.5
				c0,2.1-1.1,4.4-2.5,5.8C45.6,56.2,37,52.4,37,44.9z"/>
		</g>
		<g>
			<g>
				<g>
					<defs>
						<path id="SVGID_13_" d="M64.6,69.5c-3.3,0-5.9-2.6-5.9-5.8s2.7-5.8,5.9-5.8c3.3,0,5.9,2.6,5.9,5.8S67.8,69.5,64.6,69.5"/>
					</defs>
					<clipPath id="SVGID_14_">
						<use xlink:href="#SVGID_13_"  style="overflow:visible;"/>
					</clipPath>
					<g class="st10">
						
							<linearGradient id="SVGID_15_" gradientUnits="userSpaceOnUse" x1="-370.5292" y1="151.5972" x2="-370.0292" y2="151.5972" gradientTransform="matrix(0 -11.6255 11.8602 0 -1733.3785 -4241.0298)">
							<stop  offset="0" style="stop-color:#990000"/>
							<stop  offset="1" style="stop-color:#CC3300"/>
						</linearGradient>
						<rect x="58.6" y="57.9" class="st11" width="11.9" height="11.6"/>
					</g>
				</g>
			</g>
		</g>
		<g>
			<g>
				<g>
					<defs>
						<path id="SVGID_16_" d="M68.6,25.7c0,2-1.6,3.7-3.6,3.7s-3.6-1.6-3.6-3.7c0-2,1.6-3.7,3.6-3.7S68.6,23.7,68.6,25.7"/>
					</defs>
					<clipPath id="SVGID_17_">
						<use xlink:href="#SVGID_16_"  style="overflow:visible;"/>
					</clipPath>
					<g class="st12">
						
							<linearGradient id="SVGID_18_" gradientUnits="userSpaceOnUse" x1="-339.0526" y1="41.1859" x2="-338.0526" y2="41.1859" gradientTransform="matrix(-7.348 0 0 -7.3485 -2422.7146 328.3265)">
							<stop  offset="0" style="stop-color:#E33D00"/>
							<stop  offset="1" style="stop-color:#FF6600"/>
						</linearGradient>
						<rect x="61.4" y="22" class="st13" width="7.2" height="7.3"/>
					</g>
				</g>
			</g>
		</g>
		<g>
			<g>
				<g>
					<defs>
						<path id="SVGID_19_" d="M29.1,65.1c0,2-1.6,3.7-3.6,3.7s-3.6-1.6-3.6-3.7c0-2,1.6-3.7,3.6-3.7C27.4,61.4,29.1,63.1,29.1,65.1"
							/>
					</defs>
					<clipPath id="SVGID_20_">
						<use xlink:href="#SVGID_19_"  style="overflow:visible;"/>
					</clipPath>
					<g class="st14">
						
							<linearGradient id="SVGID_21_" gradientUnits="userSpaceOnUse" x1="-218.2309" y1="106.7307" x2="-217.2309" y2="106.7307" gradientTransform="matrix(0 7.3485 -7.2028 0 794.3036 1665.0708)">
							<stop  offset="0" style="stop-color:#003399"/>
							<stop  offset="1" style="stop-color:#00B0D9"/>
						</linearGradient>
						<rect x="21.9" y="61.4" class="st15" width="7.2" height="7.3"/>
					</g>
				</g>
			</g>
		</g>
		<g>
			<g>
				<g>
					<defs>
						<path id="SVGID_22_" d="M20.2,26.2c0-3.3,2.6-6,5.9-6s5.9,2.7,5.9,6s-2.6,6-5.9,6S20.2,29.6,20.2,26.2"/>
					</defs>
					<clipPath id="SVGID_23_">
						<use xlink:href="#SVGID_22_"  style="overflow:visible;"/>
					</clipPath>
					<g class="st16">
						
							<linearGradient id="SVGID_24_" gradientUnits="userSpaceOnUse" x1="-328.4078" y1="77.5516" x2="-327.4078" y2="77.5516" gradientTransform="matrix(-12.0291 0 0 -12.0297 -3918.3792 959.1447)">
							<stop  offset="0" style="stop-color:#006633"/>
							<stop  offset="1" style="stop-color:#7BD41A"/>
						</linearGradient>
						<rect x="20.2" y="20.2" class="st17" width="11.8" height="12"/>
					</g>
				</g>
			</g>
		</g>
		<g>
			<path class="st1" d="M37.8,35.9c-0.1,0.1-1.4,1.5-1.5,1.5c-0.4-0.1-1.8-0.8-2-0.7s-1.5,2.5-1.7,2.7l1.6,1.4
				c0,0.3-0.4,1.2-0.6,2.1l-2.2,0.3v3.3c0.4,0.1,0.8,0.1,1.2,0.2l0.8,0.2c0.2,0.1,0.2,0.6,0.4,1.1c0.1,0.4,0.2,0.7,0.3,1
				c-0.3,0.4-1.4,1-1.6,1.4l1.6,2.8c0.5,0,1.4-0.5,2-0.7l0.2,0.2c0.3,0.4,1,1.1,1.4,1.3l-0.8,2c0.3,0.2,2.5,1.5,2.8,1.6l1.4-1.5
				c0.3,0,0.7,0.2,1,0.3c0.4,0.1,0.7,0.2,1.1,0.3l0.3,2c0.3,0.2,2.5,0,3.2,0.1c0-0.4,0.2-2,0.5-2.1l0.4-0.1c0.7-0.1,1-0.3,1.6-0.5
				c0.4,0.5,0.9,1.1,1.3,1.6l2.8-1.6c0-0.6-0.6-1.5-0.6-2.1c0.6-0.5,1-1,1.6-1.5l1.9,0.7c0.2-0.2,0.6-1,0.8-1.4s0.6-1,0.8-1.4
				c-0.1-0.2-1.3-1.2-1.6-1.3c0-0.2,0.6-2.1,0.6-2.2c0.3-0.2,1.6-0.3,2.1-0.4v-3.3c-0.3-0.1-2-0.3-2-0.4l-0.6-2.1
				c0.6-0.5,1.2-0.8,1.6-1.4c-0.2-0.4-1.3-2.2-1.6-2.8l-2,0.7c-0.5-0.5-1-1-1.6-1.5c0.1-0.6,0.7-1.6,0.8-2.1
				c-0.3-0.1-2.2-1.3-2.8-1.6l-1.4,1.7c-0.5,0-0.6-0.2-1-0.3c-0.3-0.1-0.7-0.2-1.1-0.2l-0.3-1.9c0-0.3,0-0.4-0.2-0.4h-2.9
				c-0.3,0-0.2,0.2-0.3,0.5l-0.3,1.8c-0.5-0.2-1.6,0.3-2.1,0.5c-0.2-0.3-0.4-0.6-0.7-0.9c-0.2-0.2-0.5-0.7-0.7-0.8
				c-0.2,0.1-0.5,0.3-0.7,0.4l-1.2,1.1c-0.3,0.1-0.4,0.2-0.7,0.4L37.8,35.9z M35.6,44.9c0-5.3,4.5-9.7,9.9-9.6
				c5.3,0.1,9.6,4.5,9.6,10c0,2.5-1.2,5.2-3,6.8C45.6,58,35.6,53.6,35.6,44.9z"/>
		</g>
	</g>
</g>
<g id="Слой_2">
</g>
</svg>
