<svg height="512pt" viewBox="0 0 512 512" width="512pt" xmlns="http://www.w3.org/2000/svg"><g fill="#eceaec"><path d="m256 512c-28.984375 0-55.59375-27.554688-74.933594-77.59375-18.464844-47.773438-28.636718-111.132812-28.636718-178.40625s10.171874-130.632812 28.636718-178.40625c19.339844-50.039062 45.949219-77.59375 74.933594-77.59375s55.59375 27.554688 74.933594 77.59375c18.464844 47.773438 28.636718 111.132812 28.636718 178.40625s-10.171874 130.632812-28.636718 178.40625c-19.339844 50.039062-45.949219 77.59375-74.933594 77.59375zm0-496.925781c-21.996094 0-44.183594 24.769531-60.875 67.953125-17.8125 46.082031-27.621094 107.511718-27.621094 172.972656s9.808594 126.890625 27.621094 172.972656c16.691406 43.183594 38.878906 67.953125 60.875 67.953125s44.183594-24.769531 60.875-67.953125c17.8125-46.082031 27.621094-107.511718 27.621094-172.972656s-9.808594-126.890625-27.621094-172.972656c-16.691406-43.183594-38.878906-67.953125-60.875-67.953125zm0 0"/><path d="m256 359.570312c-67.273438 0-130.632812-10.171874-178.40625-28.636718-50.039062-19.339844-77.59375-45.949219-77.59375-74.933594s27.554688-55.59375 77.59375-74.933594c47.773438-18.464844 111.132812-28.636718 178.40625-28.636718s130.632812 10.171874 178.40625 28.636718c50.039062 19.339844 77.59375 45.949219 77.59375 74.933594s-27.554688 55.59375-77.59375 74.933594c-47.773438 18.464844-111.132812 28.636718-178.40625 28.636718zm0-192.066406c-65.460938 0-126.890625 9.808594-172.972656 27.621094-43.183594 16.691406-67.953125 38.878906-67.953125 60.875s24.769531 44.183594 67.953125 60.875c46.082031 17.8125 107.511718 27.621094 172.972656 27.621094s126.890625-9.808594 172.972656-27.621094c43.183594-16.691406 67.953125-38.878906 67.953125-60.875s-24.769531-44.183594-67.953125-60.875c-46.082031-17.8125-107.511718-27.621094-172.972656-27.621094zm0 0"/><path d="m116.554688 451.917969c-17.511719 0-31.632813-4.960938-41.574219-14.898438-20.492188-20.496093-19.828125-58.796875 1.878906-107.855469 20.726563-46.835937 58.335937-98.828124 105.90625-146.398437s99.5625-85.179687 146.398437-105.90625c49.058594-21.707031 87.359376-22.375 107.855469-1.878906 20.492188 20.496093 19.828125 58.796875-1.878906 107.855469-20.726563 46.835937-58.335937 98.828124-105.90625 146.398437s-99.5625 85.179687-146.398437 105.90625c-25.269532 11.179687-47.6875 16.777344-66.28125 16.777344zm278.839843-376.761719c-16.339843 0-36.851562 5.1875-60.128906 15.488281-45.179687 19.992188-95.554687 56.492188-141.839844 102.78125-46.289062 46.289063-82.789062 96.660157-102.78125 141.839844-18.734375 42.339844-20.558593 75.542969-5.003906 91.09375 15.550781 15.554687 48.753906 13.730469 91.09375-5.003906 45.179687-19.992188 95.550781-56.492188 141.839844-102.78125 46.289062-46.285157 82.789062-96.660157 102.78125-141.839844 18.734375-42.339844 20.558593-75.542969 5.003906-91.09375-7-7.003906-17.582031-10.484375-30.964844-10.484375zm0 0"/><path d="m395.449219 451.917969c-18.601563 0-41.011719-5.597657-66.285157-16.777344-46.835937-20.726563-98.828124-58.335937-146.398437-105.90625s-85.179687-99.5625-105.90625-146.398437c-21.707031-49.058594-22.371094-87.359376-1.878906-107.855469 20.496093-20.496094 58.796875-19.828125 107.855469 1.878906 46.835937 20.726563 98.828124 58.335937 146.398437 105.90625s85.179687 99.5625 105.90625 146.398437c21.707031 49.058594 22.371094 87.359376 1.878906 107.855469-9.9375 9.9375-24.066406 14.898438-41.570312 14.898438zm-278.84375-376.761719c-13.382813 0-23.960938 3.480469-30.964844 10.484375-15.554687 15.550781-13.730469 48.753906 5.003906 91.09375 19.992188 45.179687 56.492188 95.550781 102.78125 141.839844 46.289063 46.289062 96.660157 82.789062 141.839844 102.78125 42.339844 18.734375 75.542969 20.558593 91.09375 5.003906 15.554687-15.550781 13.730469-48.753906-5.003906-91.09375-19.992188-45.179687-56.492188-95.554687-102.78125-141.839844-46.285157-46.289062-96.660157-82.789062-141.839844-102.78125-23.273437-10.296875-43.792969-15.488281-60.128906-15.488281zm0 0"/></g><path d="m256 231.378906c0 13.597656-11.023438 24.621094-24.621094 24.621094s-24.617187-11.023438-24.617187-24.621094 11.019531-24.617187 24.617187-24.617187 24.621094 11.019531 24.621094 24.617187zm0 0" fill="#89e5ff"/><path d="m305.238281 231.378906c0 13.597656-11.019531 24.621094-24.617187 24.621094s-24.621094-11.023438-24.621094-24.621094 11.023438-24.617187 24.621094-24.617187 24.617187 11.019531 24.617187 24.617187zm0 0" fill="#ffab57"/><path d="m256 280.621094c0 13.597656-11.023438 24.617187-24.621094 24.617187s-24.617187-11.019531-24.617187-24.617187 11.019531-24.621094 24.617187-24.621094 24.621094 11.023438 24.621094 24.621094zm0 0" fill="#ffab57"/><path d="m305.238281 280.621094c0 13.597656-11.019531 24.617187-24.617187 24.617187s-24.621094-11.019531-24.621094-24.617187 11.023438-24.621094 24.621094-24.621094 24.617187 11.023438 24.617187 24.621094zm0 0" fill="#89e5ff"/><path d="m231.378906 206.761719c-2.964844 0-5.8125.523437-8.445312 1.484375 9.4375 3.449218 16.171875 12.503906 16.171875 23.136718 0 10.628907-6.734375 19.683594-16.171875 23.132813 2.632812.960937 5.476562 1.488281 8.445312 1.488281 13.597656 0 24.621094-11.023437 24.621094-24.621094 0-13.601562-11.023438-24.621093-24.621094-24.621093zm0 0" fill="#67cbef"/><path d="m280.621094 206.761719c-2.96875 0-5.8125.523437-8.449219 1.484375 9.4375 3.449218 16.175781 12.503906 16.175781 23.136718 0 10.628907-6.738281 19.683594-16.175781 23.132813 2.636719.960937 5.480469 1.488281 8.449219 1.488281 13.597656 0 24.617187-11.023437 24.617187-24.621094 0-13.601562-11.019531-24.621093-24.617187-24.621093zm0 0" fill="#f89a43"/><path d="m231.378906 256c-2.964844 0-5.8125.523438-8.445312 1.488281 9.4375 3.445313 16.171875 12.503907 16.171875 23.132813s-6.734375 19.6875-16.171875 23.132812c2.632812.960938 5.476562 1.488282 8.445312 1.488282 13.597656 0 24.621094-11.023438 24.621094-24.621094s-11.023438-24.621094-24.621094-24.621094zm0 0" fill="#f89a43"/><path d="m280.621094 256c-2.96875 0-5.8125.523438-8.449219 1.488281 9.4375 3.445313 16.175781 12.503907 16.175781 23.132813s-6.738281 19.6875-16.175781 23.132812c2.636719.960938 5.480469 1.488282 8.449219 1.488282 13.597656 0 24.617187-11.023438 24.617187-24.621094s-11.019531-24.621094-24.617187-24.621094zm0 0" fill="#67cbef"/></svg>